#!OML:ASF E:\motion texture\Top Level 1\Subject 1\Session 1\male.ASF
:FULLY-SPECIFIED
:DEGREES
429
root 6.94193 17.4796 4.77236 530.81 -97.3275 -525.774
lowerback -1.99277 -4.36389 -4.68629
upperback -3.77841 -5.83456 2.36734
thorax -2.0785 -2.80562 5.02098
lowerneck -20.8265 -3.8036 -6.75013
upperneck 16.373 -4.54618 6.40619
head 8.85313 -1.88362 2.67265
rclavicle 1.61264e-014 6.36111e-015
rhumerus -51.3869 7.61605 -83.133
rradius 57.8904
rwrist -5.93055
rhand -19.4148 -11.0838
rfingers 7.12502
rthumb 6.9047 -40.9512
lclavicle 1.61264e-014 6.36111e-015
lhumerus -17.7982 -22.1441 95.152
lradius 59.9787
lwrist 0.583995
lhand -16.3459 8.3529
lfingers 7.12502
lthumb 9.86646 38.1017
rfemur -39.4683 -7.81424 20.2515
rtibia 42.4339
rfoot 182.374 -185.842
rtoes 14.5131
lfemur 9.28804 -5.31902 -20.6297
ltibia 25.6282
lfoot 353.691 -14.1706
ltoes -20.6936
430
root 6.75567 17.4553 4.7385 534.26 -97.0108 -529.201
lowerback -2.193 -4.16878 -4.28072
upperback -3.85139 -5.57059 2.49163
thorax -2.0974 -2.68177 4.91829
lowerneck -20.7585 -3.8701 -6.84293
upperneck 16.4731 -4.59868 6.3104
head 8.87902 -1.92574 2.64848
rclavicle -4.32357e-015 8.74653e-015
rhumerus -49.9371 7.30937 -83.8203
rradius 57.6161
rwrist -6.04312
rhand -19.6018 -11.2468
rfingers 7.12502
rthumb 6.72418 -41.12
lclavicle -4.32357e-015 8.74653e-015
lhumerus -19.2083 -21.9142 95.7379
lradius 58.6614
lwrist 0.373303
lhand -16.1973 8.50782
lfingers 7.12502
lthumb 10.0098 38.2498
rfemur -37.7709 -7.04546 20.9135
rtibia 41.0798
rfoot 179.791 -185.472
rtoes 15.8582
lfemur 8.40218 -4.97571 -19.6078
ltibia 27.7798
lfoot 355.759 -14.8233
ltoes -20.8777
431
root 6.57765 17.4353 4.70626 538.688 -96.556 -533.659
lowerback -2.28481 -3.92046 -3.74146
upperback -3.89738 -5.24059 2.63363
thorax -2.16337 -2.52706 4.76837
lowerneck -20.7144 -3.91549 -6.91548
upperneck 16.5401 -4.62146 6.20081
head 8.89475 -1.95361 2.62001
rclavicle -1.93815e-015 6.36111e-015
rhumerus -48.3616 7.1139 -84.5598
rradius 57.3852
rwrist -6.13467
rhand -19.769 -11.4116
rfingers 7.12502
rthumb 6.56282 -41.2899
lclavicle -1.93815e-015 6.36111e-015
lhumerus -20.6026 -21.6227 96.2506
lradius 57.253
lwrist 0.07873
lhand -16.0127 8.71303
lfingers 7.12502
lthumb 10.1879 38.4463
rfemur -36.3186 -6.12103 21.7494
rtibia 39.9482
rfoot 177.808 -185.403
rtoes 17.3826
lfemur 7.29727 -4.50607 -18.4759
ltibia 30.2487
lfoot 358.341 -15.3263
ltoes -20.6383
432
root 6.40885 17.4201 4.6762 544.412 -96.0053 -539.469
lowerback -2.25707 -3.62907 -3.08385
upperback -3.90711 -4.85641 2.78629
thorax -2.26839 -2.34774 4.57049
lowerneck -20.7021 -3.9356 -6.96412
upperneck 16.5552 -4.60854 6.07937
head 8.89478 -1.9637 2.588
rclavicle -4.8901e-014 -3.97569e-015
rhumerus -46.6456 7.05979 -85.3522
rradius 57.2212
rwrist -6.20882
rhand -19.92 -11.5481
rfingers 7.12502
rthumb 6.417 -41.4309
lclavicle -4.8901e-014 -3.97569e-015
lhumerus -21.9779 -21.2373 96.6726
lradius 55.7724
lwrist -0.322796
lhand -15.8276 8.93945
lfingers 7.12502
lthumb 10.3664 38.6639
rfemur -35.0992 -5.08675 22.7154
rtibia 39.0837
rfoot 176.352 -185.549
rtoes 18.6963
lfemur 5.98039 -3.93002 -17.2802
ltibia 33.0282
lfoot 361.363 -15.6324
ltoes -19.9328
433
root 6.24909 17.4097 4.64878 551.834 -95.4152 -547.038
lowerback -2.13376 -3.30671 -2.34279
upperback -3.85863 -4.43086 2.94693
thorax -2.36991 -2.15074 4.33616
lowerneck -20.7224 -3.93137 -6.98482
upperneck 16.4937 -4.55931 5.93839
head 8.87043 -1.95611 2.5491
rclavicle -2.40529e-014 6.36111e-015
rhumerus -44.7705 7.16664 -86.1774
rradius 57.1604
rwrist -6.28902
rhand -20.0399 -11.7002
rfingers 7.12502
rthumb 6.30129 -41.5864
lclavicle -2.40529e-014 6.36111e-015
lhumerus -23.3015 -20.7419 96.994
lradius 54.2142
lwrist -0.846063
lhand -15.6126 9.15737
lfingers 7.12502
lthumb 10.5739 38.8714
rfemur -34.065 -4.01664 23.7649
rtibia 38.4883
rfoot 175.309 -185.732
rtoes 19.4719
lfemur 4.47499 -3.28038 -16.0741
ltibia 36.0999
lfoot 364.681 -15.7344
ltoes -18.7487
434
root 6.09767 17.4035 4.62401 561.233 -94.8701 -556.64
lowerback -1.92112 -2.97297 -1.55899
upperback -3.75829 -3.98815 3.10678
thorax -2.46474 -1.94699 4.07713
lowerneck -20.7525 -3.90085 -6.9733
upperneck 16.342 -4.47334 5.77522
head 8.81306 -1.93101 2.5019
rclavicle -1.37161e-014 -1.59028e-015
rhumerus -42.7603 7.45161 -87.0224
rradius 57.2255
rwrist -6.36925
rhand -20.1124 -11.8725
rfingers 7.12502
rthumb 6.23129 -41.7608
lclavicle -1.37161e-014 -1.59028e-015
lhumerus -24.5967 -20.129 97.2118
lradius 52.6042
lwrist -1.48255
lhand -15.3958 9.34796
lfingers 7.12502
lthumb 10.783 39.0512
rfemur -33.1634 -2.98642 24.8401
rtibia 38.1413
rfoot 174.564 -185.869
rtoes 19.8404
lfemur 2.78821 -2.6054 -14.9181
ltibia 39.4575
lfoot 368.001 -15.7315
ltoes -17.3442
435
root 5.95337 17.4009 4.60173 572.37 -94.4641 -568.032
lowerback -1.6399 -2.6482 -0.779815
upperback -3.60835 -3.55382 3.25581
thorax -2.53844 -1.748 3.80732
lowerneck -20.7499 -3.84353 -6.91875
upperneck 16.0823 -4.35482 5.58245
head 8.70936 -1.89113 2.44181
rclavicle 3.23522e-014 -1.03368e-014
rhumerus -40.6429 7.90672 -87.8654
rradius 57.4416
rwrist -6.47867
rhand -20.171 -12.0399
rfingers 7.12502
rthumb 6.17476 -41.9299
lclavicle 3.23522e-014 -1.03368e-014
lhumerus -25.866 -19.4126 97.3295
lradius 50.9351
lwrist -2.2055
lhand -15.216 9.4963
lfingers 7.12502
lthumb 10.9564 39.1904
rfemur -32.3239 -2.06699 25.8773
rtibia 37.9735
rfoot 174.011 -185.891
rtoes 19.9244
lfemur 0.936996 -1.96511 -13.8662
ltibia 43.0878
lfoot 371.01 -15.7454
ltoes -15.8151
436
root 5.81469 17.4013 4.58153 584.253 -94.2544 -580.218
lowerback -1.31952 -2.3498 -0.0438193
upperback -3.4012 -3.15085 3.39332
thorax -2.56346 -1.5641 3.54578
lowerneck -20.7199 -3.76274 -6.83576
upperneck 15.7156 -4.20712 5.3713
head 8.56205 -1.83753 2.37468
rclavicle -1.4238e-014 1.59028e-015
rhumerus -38.4153 8.52472 -88.6718
rradius 57.8173
rwrist -6.63383
rhand -20.189 -12.2464
rfingers 7.12502
rthumb 6.15737 -42.137
lclavicle -1.4238e-014 1.59028e-015
lhumerus -27.0881 -18.6146 97.3479
lradius 49.207
lwrist -2.97874
lhand -15.1278 9.53512
lfingers 7.12502
lthumb 11.0415 39.2247
rfemur -31.4776 -1.29581 26.8326
rtibia 37.8773
rfoot 173.579 -185.799
rtoes 19.7908
lfemur -1.06773 -1.40078 -12.9483
ltibia 46.9788
lfoot 373.426 -15.855
ltoes -14.2558
437
root 5.68086 17.4036 4.56273 595.421 -94.256 -591.724
lowerback -0.96938 -2.09054 0.641649
upperback -3.16222 -2.79679 3.51879
thorax -2.56095 -1.4031 3.29744
lowerneck -20.6491 -3.66343 -6.71448
upperneck 15.2844 -4.04129 5.12801
head 8.38426 -1.77661 2.2931
rclavicle -5.31749e-015 2.54444e-014
rhumerus -36.1236 9.29268 -89.4219
rradius 58.3557
rwrist -6.84266
rhand -20.2202 -12.4311
rfingers 7.12502
rthumb 6.12724 -42.3225
lclavicle -5.31749e-015 2.54444e-014
lhumerus -28.2672 -17.7656 97.2791
lradius 47.3957
lwrist -3.75932
lhand -15.0624 9.57684
lfingers 7.12502
lthumb 11.1045 39.263
rfemur -30.5842 -0.699134 27.6982
rtibia 37.7631
rfoot 173.204 -185.617
rtoes 19.6102
lfemur -3.23749 -0.931613 -12.1538
ltibia 51.1192
lfoot 375.022 -16.0334
ltoes -12.859
438
root 5.55019 17.4078 4.54473 604.74 -94.4369 -601.405
lowerback -0.618363 -1.87116 1.28458
upperback -2.89743 -2.4939 3.63632
thorax -2.52283 -1.26614 3.06194
lowerneck -20.5377 -3.55521 -6.56519
upperneck 14.8193 -3.87189 4.86439
head 8.1884 -1.71461 2.20105
rclavicle -3.16068e-014 3.26007e-014
rhumerus -33.7903 10.1761 -90.0878
rradius 59.0573
rwrist -7.09894
rhand -20.2578 -12.596
rfingers 7.12502
rthumb 6.09096 -42.4884
lclavicle -3.16068e-014 3.26007e-014
lhumerus -29.4033 -16.9077 97.1313
lradius 45.5117
lwrist -4.51382
lhand -15.0394 9.59545
lfingers 7.12502
lthumb 11.1267 39.2805
rfemur -29.6032 -0.276673 28.4954
rtibia 37.5541
rfoot 172.847 -185.386
rtoes 19.4792
lfemur -5.56381 -0.539073 -11.4476
ltibia 55.4694
lfoot 375.712 -16.1792
ltoes -11.7404
439
root 5.42271 17.4144 4.5266 611.681 -94.7542 -608.714
lowerback -0.283547 -1.6913 1.88476
upperback -2.62254 -2.24304 3.75942
thorax -2.4568 -1.15345 2.85421
lowerneck -20.3894 -3.44773 -6.40759
upperneck 14.3576 -3.70916 4.58827
head 7.98914 -1.65673 2.10323
rclavicle 1.14798e-014 -1.82882e-014
rhumerus -31.4323 11.1465 -90.6363
rradius 59.9113
rwrist -7.383
rhand -20.3074 -12.7364
rfingers 7.12502
rthumb 6.04304 -42.6303
lclavicle 1.14798e-014 -1.82882e-014
lhumerus -30.4791 -16.0627 96.9199
lradius 43.5405
lwrist -5.27055
lhand -15.0687 9.57635
lfingers 7.12502
lthumb 11.0985 39.2629
rfemur -28.5336 -0.0134188 29.2509
rtibia 37.2078
rfoot 172.51 -185.156
rtoes 19.3435
lfemur -8.0651 -0.19174 -10.7877
ltibia 59.9904
lfoot 375.523 -16.1899
ltoes -11.0349
440
root 5.29812 17.4243 4.50803 616.545 -95.1602 -613.936
lowerback 0.0389148 -1.5407 2.46009
upperback -2.36027 -2.03035 3.88736
thorax -2.39113 -1.05856 2.66488
lowerneck -20.2144 -3.3504 -6.25253
upperneck 13.9478 -3.56591 4.31246
head 7.80565 -1.60833 2.00417
rclavicle -2.34069e-014 3.33958e-014
rhumerus -29.0788 12.1663 -91.0555
rradius 60.8971
rwrist -7.67124
rhand -20.3588 -12.8504
rfingers 7.12502
rthumb 5.99341 -42.7456
lclavicle -2.34069e-014 3.33958e-014
lhumerus -31.501 -15.25 96.6485
lradius 41.4995
lwrist -6.03177
lhand -15.0892 9.57534
lfingers 7.12502
lthumb 11.0787 39.2629
rfemur -27.3977 0.147894 29.9823
rtibia 36.7351
rfoot 172.188 -184.961
rtoes 19.292
lfemur -10.7375 0.160279 -10.1439
ltibia 64.6113
lfoot 374.649 -16.0302
ltoes -10.733
441
root 5.17614 17.4387 4.48882 619.975 -95.6177 -617.698
lowerback 0.340703 -1.40576 3.01268
upperback -2.1226 -1.83798 4.02247
thorax -2.3349 -0.972883 2.49529
lowerneck -20.033 -3.2702 -6.11504
upperneck 13.6243 -3.44888 4.05107
head 7.65333 -1.57191 1.91007
rclavicle -1.963e-015 -2.78299e-014
rhumerus -26.7296 13.2018 -91.335
rradius 61.9714
rwrist -7.93968
rhand -20.4087 -12.9416
rfingers 7.12502
rthumb 5.94526 -42.8382
lclavicle -1.963e-015 -2.78299e-014
lhumerus -32.4813 -14.471 96.3166
lradius 39.4158
lwrist -6.89208
lhand -15.0901 9.54115
lfingers 7.12502
lthumb 11.0779 39.2288
rfemur -26.2338 0.272004 30.7009
rtibia 36.1534
rfoot 171.899 -184.821
rtoes 19.3194
lfemur -13.573 0.570046 -9.5075
ltibia 69.2503
lfoot 373.29 -15.7872
ltoes -10.6618
